<mxfile host="app.diagrams.net" modified="2024-01-05T14:18:51.129Z" agent="Mozilla/5.0 (X11; Linux x86_64) AppleWebKit/537.36 (KHTML, like Gecko) Chrome/120.0.0.0 Safari/537.36" etag="er3dIZwAD5_VQzsLxxRI" version="22.1.16" type="device">
  <diagram name="Página-1" id="K5BVCkZBTRmpWdmXIQcK">
    <mxGraphModel dx="989" dy="532" grid="1" gridSize="10" guides="1" tooltips="1" connect="1" arrows="1" fold="1" page="1" pageScale="1" pageWidth="2339" pageHeight="3300" math="0" shadow="0">
      <root>
        <mxCell id="0" />
        <mxCell id="1" parent="0" />
        <mxCell id="249MMIfMZKDyMofd3Q7i-1" value="" style="whiteSpace=wrap;html=1;fillColor=default;" vertex="1" parent="1">
          <mxGeometry x="130" y="70" width="590" height="40" as="geometry" />
        </mxCell>
        <mxCell id="249MMIfMZKDyMofd3Q7i-2" value="" style="group;strokeColor=default;fillColor=default;" vertex="1" connectable="0" parent="1">
          <mxGeometry x="130" y="110" width="590" height="100" as="geometry" />
        </mxCell>
        <mxCell id="249MMIfMZKDyMofd3Q7i-3" value="&lt;div style=&quot;&quot;&gt;&lt;font style=&quot;font-size: 24px;&quot;&gt;NegociaçãoEspecial&lt;/font&gt;&lt;br&gt;&lt;/div&gt;&lt;font style=&quot;font-size: 24px;&quot;&gt;&lt;div style=&quot;&quot;&gt;Repasse Fies&lt;/div&gt;Agente Financiador&lt;br&gt;&lt;/font&gt;" style="text;html=1;strokeColor=none;fillColor=none;align=left;verticalAlign=top;whiteSpace=wrap;rounded=0;" vertex="1" parent="249MMIfMZKDyMofd3Q7i-2">
          <mxGeometry x="19.86" width="234.95" height="45.45454545454545" as="geometry" />
        </mxCell>
        <mxCell id="249MMIfMZKDyMofd3Q7i-4" value="&lt;span style=&quot;color: rgb(0, 0, 0); font-family: Helvetica; font-size: 24px; font-style: normal; font-variant-ligatures: normal; font-variant-caps: normal; letter-spacing: normal; orphans: 2; text-align: left; text-indent: 0px; text-transform: none; widows: 2; word-spacing: 0px; -webkit-text-stroke-width: 0px; background-color: rgb(251, 251, 251); text-decoration-thickness: initial; text-decoration-style: initial; text-decoration-color: initial; float: none; display: inline !important;&quot;&gt;Matrícula &lt;/span&gt;&lt;span style=&quot;color: rgb(0, 0, 0); font-family: Helvetica; font-style: normal; font-variant-ligatures: normal; font-variant-caps: normal; letter-spacing: normal; orphans: 2; text-align: left; text-indent: 0px; text-transform: none; widows: 2; word-spacing: 0px; -webkit-text-stroke-width: 0px; background-color: rgb(251, 251, 251); text-decoration-thickness: initial; text-decoration-style: initial; text-decoration-color: initial; float: none; display: inline !important;&quot;&gt;&lt;font style=&quot;font-size: 12px;&quot;&gt;(&lt;/font&gt;&lt;/span&gt;&lt;span style=&quot;color: rgb(0, 0, 0); font-family: Helvetica; font-style: normal; font-variant-ligatures: normal; font-variant-caps: normal; letter-spacing: normal; orphans: 2; text-align: left; text-indent: 0px; text-transform: none; widows: 2; word-spacing: 0px; -webkit-text-stroke-width: 0px; background-color: rgb(251, 251, 251); text-decoration-thickness: initial; text-decoration-style: initial; text-decoration-color: initial; float: none; display: inline !important;&quot;&gt;&lt;font style=&quot;font-size: 12px;&quot;&gt;conforme o débito de origem)&lt;/font&gt;&lt;/span&gt;&lt;br style=&quot;border-color: var(--border-color); color: rgb(0, 0, 0); font-family: Helvetica; font-size: 24px; font-style: normal; font-variant-ligatures: normal; font-variant-caps: normal; letter-spacing: normal; orphans: 2; text-align: left; text-indent: 0px; text-transform: none; widows: 2; word-spacing: 0px; -webkit-text-stroke-width: 0px; background-color: rgb(251, 251, 251); text-decoration-thickness: initial; text-decoration-style: initial; text-decoration-color: initial;&quot;&gt;&lt;span style=&quot;color: rgb(0, 0, 0); font-family: Helvetica; font-size: 24px; font-style: normal; font-variant-ligatures: normal; font-variant-caps: normal; letter-spacing: normal; orphans: 2; text-align: left; text-indent: 0px; text-transform: none; widows: 2; word-spacing: 0px; -webkit-text-stroke-width: 0px; background-color: rgb(251, 251, 251); text-decoration-thickness: initial; text-decoration-style: initial; text-decoration-color: initial; float: none; display: inline !important;&quot;&gt;Matrícula&amp;nbsp;&lt;/span&gt;(&lt;span style=&quot;border-color: var(--border-color);&quot;&gt;conforme o débito de origem)&lt;/span&gt;&lt;br style=&quot;border-color: var(--border-color); color: rgb(0, 0, 0); font-family: Helvetica; font-size: 24px; font-style: normal; font-variant-ligatures: normal; font-variant-caps: normal; letter-spacing: normal; orphans: 2; text-align: left; text-indent: 0px; text-transform: none; widows: 2; word-spacing: 0px; -webkit-text-stroke-width: 0px; background-color: rgb(251, 251, 251); text-decoration-thickness: initial; text-decoration-style: initial; text-decoration-color: initial;&quot;&gt;&lt;span style=&quot;border-color: var(--border-color); font-size: 24px;&quot;&gt;Matrícula&amp;nbsp;&lt;span style=&quot;border-color: var(--border-color); font-size: 12px;&quot;&gt;&lt;font style=&quot;border-color: var(--border-color);&quot;&gt;(conforme o débito de origem)&lt;/font&gt;&lt;/span&gt;&lt;br style=&quot;border-color: var(--border-color);&quot;&gt;&lt;br&gt;&lt;/span&gt;" style="text;whiteSpace=wrap;html=1;" vertex="1" parent="249MMIfMZKDyMofd3Q7i-2">
          <mxGeometry x="307.92" y="0.4727272727272727" width="271.28" height="44.98181818181818" as="geometry" />
        </mxCell>
        <mxCell id="249MMIfMZKDyMofd3Q7i-5" value="&lt;font style=&quot;font-size: 24px;&quot;&gt;&lt;b&gt;Tipo Pedido de Venda&lt;/b&gt;&lt;/font&gt;" style="text;html=1;align=center;verticalAlign=middle;resizable=0;points=[];autosize=1;strokeColor=none;fillColor=none;" vertex="1" parent="1">
          <mxGeometry x="430" y="70" width="270" height="40" as="geometry" />
        </mxCell>
        <mxCell id="249MMIfMZKDyMofd3Q7i-6" value="&lt;font style=&quot;font-size: 24px;&quot;&gt;&lt;b&gt;Tipo de Débito&lt;/b&gt;&lt;/font&gt;" style="text;html=1;align=left;verticalAlign=middle;resizable=0;points=[];autosize=1;strokeColor=none;fillColor=none;" vertex="1" parent="1">
          <mxGeometry x="180" y="70" width="190" height="40" as="geometry" />
        </mxCell>
        <mxCell id="249MMIfMZKDyMofd3Q7i-7" value="&lt;b&gt;&lt;font style=&quot;font-size: 14px;&quot;&gt;BaseEducacional.dbo.FNDebitos&lt;/font&gt;&lt;/b&gt;" style="text;html=1;align=center;verticalAlign=middle;resizable=0;points=[];autosize=1;strokeColor=none;fillColor=none;strokeWidth=13;" vertex="1" parent="1">
          <mxGeometry x="145" y="350" width="240" height="30" as="geometry" />
        </mxCell>
        <mxCell id="249MMIfMZKDyMofd3Q7i-8" value="&lt;font style=&quot;font-size: 14px;&quot;&gt;&lt;b&gt;INSERT&lt;/b&gt;&lt;/font&gt;" style="text;html=1;align=center;verticalAlign=middle;resizable=0;points=[];autosize=1;strokeColor=none;fillColor=none;" vertex="1" parent="1">
          <mxGeometry x="318" y="406.38" width="70" height="30" as="geometry" />
        </mxCell>
        <mxCell id="249MMIfMZKDyMofd3Q7i-9" value="" style="endArrow=classic;html=1;rounded=0;entryX=0.959;entryY=1.043;entryDx=0;entryDy=0;entryPerimeter=0;" edge="1" parent="1">
          <mxGeometry width="50" height="50" relative="1" as="geometry">
            <mxPoint x="310.5" y="438.41999999999996" as="sourcePoint" />
            <mxPoint x="409.5799999999999" y="437.66999999999996" as="targetPoint" />
          </mxGeometry>
        </mxCell>
        <mxCell id="249MMIfMZKDyMofd3Q7i-10" value="" style="group;fillColor=default;" vertex="1" connectable="0" parent="1">
          <mxGeometry x="227.5" y="380" width="75" height="104.12000000000006" as="geometry" />
        </mxCell>
        <mxCell id="249MMIfMZKDyMofd3Q7i-11" value="" style="shape=cylinder3;whiteSpace=wrap;html=1;boundedLbl=1;backgroundOutline=1;size=15;fillColor=default;" vertex="1" parent="249MMIfMZKDyMofd3Q7i-10">
          <mxGeometry y="42.125" width="75" height="48.125" as="geometry" />
        </mxCell>
        <mxCell id="249MMIfMZKDyMofd3Q7i-12" value="" style="shape=cylinder3;whiteSpace=wrap;html=1;boundedLbl=1;backgroundOutline=1;size=15;fillColor=default;" vertex="1" parent="249MMIfMZKDyMofd3Q7i-10">
          <mxGeometry y="24.0625" width="75" height="48.125" as="geometry" />
        </mxCell>
        <mxCell id="249MMIfMZKDyMofd3Q7i-13" value="" style="shape=cylinder3;whiteSpace=wrap;html=1;boundedLbl=1;backgroundOutline=1;size=15;fillColor=default;" vertex="1" parent="249MMIfMZKDyMofd3Q7i-10">
          <mxGeometry y="6" width="75" height="48.125" as="geometry" />
        </mxCell>
        <mxCell id="249MMIfMZKDyMofd3Q7i-14" value="" style="ellipse;whiteSpace=wrap;html=1;fillColor=default;" vertex="1" parent="249MMIfMZKDyMofd3Q7i-10">
          <mxGeometry x="60.875" y="56.741365740740775" width="5.625" height="4.90162037037037" as="geometry" />
        </mxCell>
        <mxCell id="249MMIfMZKDyMofd3Q7i-15" value="" style="ellipse;whiteSpace=wrap;html=1;fillColor=default;" vertex="1" parent="249MMIfMZKDyMofd3Q7i-10">
          <mxGeometry x="60.875" y="37.48094907407408" width="5.625" height="4.90162037037037" as="geometry" />
        </mxCell>
        <mxCell id="249MMIfMZKDyMofd3Q7i-16" value="" style="ellipse;whiteSpace=wrap;html=1;fillColor=default;" vertex="1" parent="1">
          <mxGeometry x="288.20833333333337" y="454.8038657407408" width="5.625" height="4.90162037037037" as="geometry" />
        </mxCell>
        <mxCell id="249MMIfMZKDyMofd3Q7i-17" style="edgeStyle=orthogonalEdgeStyle;rounded=0;orthogonalLoop=1;jettySize=auto;html=1;fontFamily=Helvetica;fontSize=16;fontColor=default;startSize=30;" edge="1" parent="1" source="249MMIfMZKDyMofd3Q7i-18">
          <mxGeometry relative="1" as="geometry">
            <mxPoint x="220" y="433.7850000000001" as="targetPoint" />
          </mxGeometry>
        </mxCell>
        <mxCell id="249MMIfMZKDyMofd3Q7i-18" value="" style="ellipse;whiteSpace=wrap;html=1;aspect=fixed;strokeColor=#82b366;align=center;verticalAlign=middle;fontFamily=Helvetica;fontSize=16;startSize=30;fillColor=#d5e8d4;" vertex="1" parent="1">
          <mxGeometry x="130" y="412.77" width="42.03" height="42.03" as="geometry" />
        </mxCell>
        <mxCell id="249MMIfMZKDyMofd3Q7i-27" style="edgeStyle=orthogonalEdgeStyle;rounded=0;orthogonalLoop=1;jettySize=auto;html=1;exitX=1;exitY=0.5;exitDx=0;exitDy=0;entryX=0;entryY=0.5;entryDx=0;entryDy=0;" edge="1" parent="1" source="249MMIfMZKDyMofd3Q7i-24" target="249MMIfMZKDyMofd3Q7i-34">
          <mxGeometry relative="1" as="geometry">
            <mxPoint x="479.9655172413793" y="530" as="targetPoint" />
          </mxGeometry>
        </mxCell>
        <mxCell id="249MMIfMZKDyMofd3Q7i-24" value="Obtém o débito original (que originou o débito negociado)" style="whiteSpace=wrap;html=1;" vertex="1" parent="1">
          <mxGeometry x="410" y="388.79" width="140" height="90" as="geometry" />
        </mxCell>
        <mxCell id="249MMIfMZKDyMofd3Q7i-36" style="edgeStyle=orthogonalEdgeStyle;rounded=0;orthogonalLoop=1;jettySize=auto;html=1;exitX=1;exitY=0.5;exitDx=0;exitDy=0;entryX=0;entryY=0.5;entryDx=0;entryDy=0;" edge="1" parent="1" source="249MMIfMZKDyMofd3Q7i-34" target="249MMIfMZKDyMofd3Q7i-35">
          <mxGeometry relative="1" as="geometry" />
        </mxCell>
        <mxCell id="249MMIfMZKDyMofd3Q7i-34" value="Obtém pedido de venda com o mesmo Agrupador do débito original" style="whiteSpace=wrap;html=1;" vertex="1" parent="1">
          <mxGeometry x="610" y="388.78999999999996" width="140" height="90" as="geometry" />
        </mxCell>
        <mxCell id="249MMIfMZKDyMofd3Q7i-38" style="edgeStyle=orthogonalEdgeStyle;rounded=0;orthogonalLoop=1;jettySize=auto;html=1;exitX=1;exitY=0.5;exitDx=0;exitDy=0;entryX=0;entryY=0.5;entryDx=0;entryDy=0;" edge="1" parent="1" source="249MMIfMZKDyMofd3Q7i-35" target="249MMIfMZKDyMofd3Q7i-37">
          <mxGeometry relative="1" as="geometry" />
        </mxCell>
        <mxCell id="249MMIfMZKDyMofd3Q7i-35" value="Importa agendamento referente ao débito negociado no pedido de venda" style="whiteSpace=wrap;html=1;" vertex="1" parent="1">
          <mxGeometry x="810" y="388.78999999999996" width="140" height="90" as="geometry" />
        </mxCell>
        <mxCell id="249MMIfMZKDyMofd3Q7i-37" value="" style="ellipse;whiteSpace=wrap;html=1;aspect=fixed;strokeColor=#ae4132;align=center;verticalAlign=middle;fontFamily=Helvetica;fontSize=16;startSize=30;fillColor=#fad9d5;" vertex="1" parent="1">
          <mxGeometry x="1000" y="412.77000000000004" width="42.03" height="42.03" as="geometry" />
        </mxCell>
        <mxCell id="249MMIfMZKDyMofd3Q7i-39" value="&lt;font style=&quot;font-size: 10px;&quot;&gt;Débito negociado&lt;/font&gt;" style="text;html=1;align=center;verticalAlign=middle;resizable=0;points=[];autosize=1;strokeColor=none;fillColor=none;" vertex="1" parent="1">
          <mxGeometry x="303.83" y="436.38" width="100" height="30" as="geometry" />
        </mxCell>
      </root>
    </mxGraphModel>
  </diagram>
</mxfile>
